<?xml version="1.0" standalone="no"?>
<!DOCTYPE svg PUBLIC "-//W3C//DTD SVG 20010904//EN"
 "http://www.w3.org/TR/2001/REC-SVG-20010904/DTD/svg10.dtd">
<svg version="1.0" xmlns="http://www.w3.org/2000/svg"
 width="68.000000pt" height="86.000000pt" viewBox="0 0 68.000000 86.000000"
 preserveAspectRatio="xMidYMid meet">

<g transform="translate(0.000000,86.000000) scale(0.100000,-0.100000)"
fill="#000000" stroke="none">
<path d="M0 605 l0 -25 340 0 340 0 0 25 0 25 -340 0 -340 0 0 -25z"/>
<path d="M0 425 l0 -25 340 0 340 0 0 25 0 25 -340 0 -340 0 0 -25z"/>
<path d="M0 255 l0 -25 340 0 340 0 0 25 0 25 -340 0 -340 0 0 -25z"/>
</g>
</svg>
