<svg id="레이어_1" data-name="레이어 1" xmlns="http://www.w3.org/2000/svg" viewBox="0 0 52 52.35"><title>btn_search</title><path d="M21.5,19.5C13.9,22.2,8,31.1,8,40.1c0,5.3,4.4,13.2,9.2,16.5,5.3,3.7,15.4,4.5,20.8,1.6l3.5-1.8,7.7,7.4c6.6,6.5,7.9,7.4,9.2,6.2A3.87,3.87,0,0,0,60,67.9c0-.5-3.3-4-7.2-7.8l-7.3-6.9,1.8-3.6c4.4-9.2,3-18.4-3.9-25.2C37.3,18.2,29.8,16.6,21.5,19.5Zm13.8,3.9c7.1,2.9,11.9,12,10.2,19.3a19.88,19.88,0,0,1-3.76,8.51C37.44,56,35.9,55.4,29.8,55.8c-7.3.4-11.5-1.6-14.8-7-4.3-7-3.8-14.7,1.3-20.5C21.6,22.3,28.5,20.5,35.3,23.4Z" transform="translate(-8 -18.1)"/></svg>